<?xml version="1.0" encoding="UTF-8"?>
<svg width="17px" height="17px" viewBox="0 0 17 17" version="1.1" xmlns="http://www.w3.org/2000/svg" xmlns:xlink="http://www.w3.org/1999/xlink">
    <!-- Generator: Sketch 52.5 (67469) - http://www.bohemiancoding.com/sketch -->
    <title>cancel-music</title>
    <desc>Created with Sketch.</desc>
    <defs>
        <polygon id="path-1" points="2.2715944e-16 0 17 0 17 17 2.2715944e-16 17"></polygon>
    </defs>
    <g id="Page-1" stroke="none" stroke-width="1" fill="none" fill-rule="evenodd" opacity="0.18">
        <g id="feedture-form" transform="translate(-1300.000000, -171.000000)">
            <g id="cancel-music" transform="translate(1300.000000, 171.000000)">
                <mask id="mask-2" fill="white">
                    <use xlink:href="#path-1"></use>
                </mask>
                <g id="Clip-2"></g>
                <path d="M10.5201725,8.49980045 L16.5814011,2.43899769 C17.139533,1.88086826 17.139533,0.976327419 16.5814011,0.418597076 C16.0237681,-0.139532359 15.1191235,-0.139532359 14.5609916,0.418597076 L8.49976304,6.47979893 L2.43853451,0.418597076 C1.88090148,-0.139532359 0.976256887,-0.139532359 0.418524089,0.418597076 C-0.13950803,0.976327419 -0.13950803,1.88086826 0.418524089,2.43899769 L6.47935353,8.49980045 L0.418524089,14.5610023 C-0.13950803,15.1191317 -0.13950803,16.0236726 0.418524089,16.5814029 C0.976256887,17.1395324 1.88090148,17.1395324 2.43853451,16.5814029 L8.49976304,10.5202011 L14.5609916,16.5814029 C15.1191235,17.1395324 16.0237681,17.1395324 16.5814011,16.5814029 C17.139533,16.0232735 17.139533,15.1191317 16.5814011,14.5610023 L10.5201725,8.49980045 Z" id="Fill-1" fill="#000000" mask="url(#mask-2)"></path>
            </g>
        </g>
    </g>
</svg>