<?xml version="1.0" encoding="UTF-8"?>
<svg width="56px" height="57px" viewBox="0 0 56 57" version="1.1" xmlns="http://www.w3.org/2000/svg" xmlns:xlink="http://www.w3.org/1999/xlink">
    <!-- Generator: Sketch 52.6 (67491) - http://www.bohemiancoding.com/sketch -->
    <title>viral-marketing</title>
    <desc>Created with Sketch.</desc>
    <defs>
        <polygon id="path-1" points="0.00891891892 0.00593301435 21.8589324 0.00593301435 21.8589324 30.8626507 0.00891891892 30.8626507"></polygon>
        <linearGradient x1="-64.0419408%" y1="0%" x2="53.2137784%" y2="100%" id="linearGradient-3">
            <stop stop-color="#7652FF" offset="0%"></stop>
            <stop stop-color="#4B26D5" offset="100%"></stop>
        </linearGradient>
    </defs>
    <g id="Page-1" stroke="none" stroke-width="1" fill="none" fill-rule="evenodd">
        <g id="iPhone-8" transform="translate(-160.000000, -1609.000000)">
            <g id="viral-marketing" transform="translate(160.000000, 1609.000000)">
                <g id="Group-3">
                    <mask id="mask-2" fill="white">
                        <use xlink:href="#path-1"></use>
                    </mask>
                    <g id="Clip-2"></g>
                    <path d="M1.91504054,26.0392584 L7.96147297,26.0392584 L10.1318919,30.3708038 C10.2829189,30.6726459 10.5918108,30.8626507 10.9296892,30.8626507 C11.2671216,30.8626507 11.5760135,30.6726459 11.7270405,30.3708038 L13.8980541,26.0392584 L14.3405811,26.0392584 C14.8335,26.0392584 15.232473,25.6405598 15.232473,25.1493062 C15.232473,24.657311 14.8335,24.2593541 14.3405811,24.2593541 L13.3464189,24.2593541 C13.0085405,24.2593541 12.7002432,24.4493589 12.5492162,24.751201 L10.9296892,27.9830622 L9.31031081,24.751201 C9.15928378,24.4499522 8.85039189,24.2593541 8.51251351,24.2593541 L1.91504054,24.2593541 C1.84294595,24.2593541 1.78378378,24.2007656 1.78378378,24.1283828 L1.78378378,1.9108756 C1.78378378,1.8389378 1.84294595,1.77990431 1.91504054,1.77990431 L19.9438919,1.77990431 C20.0164324,1.77990431 20.0751486,1.8389378 20.0751486,1.9108756 L20.0751486,11.5589952 C20.0751486,12.0502488 20.4745676,12.4489474 20.9670405,12.4489474 C21.4599595,12.4489474 21.8589324,12.0502488 21.8589324,11.5589952 L21.8589324,1.9108756 C21.8589324,0.8574689 21.0000405,0 19.9438919,0 L1.91504054,0 C0.859337838,0 0,0.8574689 0,1.9108756 L0,24.1283828 C0,25.1816411 0.859337838,26.0392584 1.91504054,26.0392584 Z" id="Fill-1" fill="url(#linearGradient-3)" mask="url(#mask-2)"></path>
                </g>
                <path d="M10.5002249,4 C8.01884152,4 6,6.018707 6,8.50007496 C6,10.981293 8.01884152,13 10.5002249,13 C12.9811585,13 15,10.981293 15,8.50007496 C15,6.018707 12.9811585,4 10.5002249,4 Z M10.5002249,11.2003298 C9.01094507,11.2003298 7.79919036,9.98865586 7.79919036,8.49947527 C7.79919036,7.01074445 9.01094507,5.79907048 10.5002249,5.79907048 C11.9896547,5.79907048 13.2008096,7.01074445 13.2008096,8.50007496 C13.2008096,9.98925555 11.9896547,11.2003298 10.5002249,11.2003298 Z" id="Fill-4" fill="url(#linearGradient-3)"></path>
                <g id="Group-8" transform="translate(4.000000, 0.000000)" fill="url(#linearGradient-3)">
                    <path d="M7.31648864,16.0231435 C8.35870455,16.0231435 9.37432955,16.3151962 10.2525682,16.8674115 C10.6675341,17.1281675 11.2145682,17.0017943 11.4742727,16.584555 C11.7339773,16.1680574 11.6081136,15.6188086 11.1932955,15.3580526 C10.0321591,14.6291818 8.69168182,14.2432392 7.31648864,14.2432392 C3.28235227,14.2432392 0,17.5388804 0,21.5894976 C0,22.0807512 0.397090909,22.4794498 0.886363636,22.4794498 L10.7062386,22.4794498 C11.1961023,22.4794498 11.5926023,22.0807512 11.5926023,21.5894976 C11.5926023,21.0975024 11.1961023,20.6995455 10.7062386,20.6995455 L1.84363636,20.6995455 C2.26894318,18.0522344 4.56107955,16.0231435 7.31648864,16.0231435 Z" id="Fill-5"></path>
                    <path d="M50.0968295,0 L32.1797273,0 C31.130125,0 30.2765568,0.8574689 30.2765568,1.9108756 L30.2765568,11.5589952 C30.2765568,12.0502488 30.6730568,12.4489474 31.1629205,12.4489474 C31.6523409,12.4489474 32.0492841,12.0502488 32.0492841,11.5589952 L32.0492841,1.9108756 C32.0492841,1.8389378 32.1076364,1.77990431 32.1797273,1.77990431 L50.0968295,1.77990431 C50.1684773,1.77990431 50.2272727,1.8389378 50.2272727,1.9108756 L50.2272727,24.1283828 C50.2272727,24.2001722 50.1684773,24.2593541 50.0968295,24.2593541 L43.54025,24.2593541 C43.2044659,24.2593541 42.8974886,24.4493589 42.7473977,24.751201 L41.1380568,27.9830622 L39.5285682,24.751201 C39.3784773,24.4493589 39.0715,24.2593541 38.7357159,24.2593541 L37.7483068,24.2593541 C37.2584432,24.2593541 36.8619432,24.657311 36.8619432,25.1493062 C36.8619432,25.6405598 37.2584432,26.0392584 37.7483068,26.0392584 L38.1880909,26.0392584 L40.3456477,30.3708038 C40.4957386,30.6726459 40.8027159,30.8626507 41.1380568,30.8626507 C41.4738409,30.8626507 41.7808182,30.6726459 41.9309091,30.3708038 L44.087875,26.0392584 L50.0968295,26.0392584 C51.1465795,26.0392584 52,25.1816411 52,24.1283828 L52,1.9108756 C52,0.8574689 51.1459886,0 50.0968295,0 Z" id="Fill-7"></path>
                </g>
                <path d="M45.4997751,4 C43.0188415,4 41,6.018707 41,8.50007496 C41,10.981293 43.0188415,13 45.4997751,13 C47.9811585,13 50,10.981293 50,8.50007496 C50,6.018707 47.9811585,4 45.4997751,4 Z M45.4997751,11.2003298 C44.0103453,11.2003298 42.7991904,9.98865586 42.7991904,8.49947527 C42.7991904,7.01074445 44.0103453,5.79907048 45.4997751,5.79907048 C46.9890549,5.79907048 48.2008096,7.01074445 48.2008096,8.49947527 C48.2008096,9.98925555 46.9890549,11.2003298 45.4997751,11.2003298 Z" id="Fill-9" fill="url(#linearGradient-3)"></path>
                <path d="M41.0157703,22.1355712 C41.0157703,22.6127359 41.3914622,23 41.8556181,23 L51.1601522,23 C51.6237482,23 52,22.6127359 52,22.1355712 C52,18.2011238 48.8899035,15 45.0674762,15 C43.7644523,15 42.4943224,15.3748739 41.3946816,16.0834174 C41.0016329,16.3361187 40.8818146,16.8696153 41.12789,17.274168 C41.3739654,17.679441 41.8922915,17.8021899 42.2854802,17.5489123 C43.1181894,17.0125342 44.0799551,16.7294338 45.0674762,16.7294338 C47.6782831,16.7294338 49.8501295,18.6997551 50.2535365,21.2711425 L41.8556181,21.2711425 C41.3914622,21.2711425 41.0157703,21.6582625 41.0157703,22.1355712 Z" id="Fill-10" fill="url(#linearGradient-3)"></path>
                <path d="M17,15.9193796 L17,38.2351663 C17,39.293708 17.8648895,40.154546 18.9278613,40.154546 L25.0127576,40.154546 L27.1973478,44.5059642 C27.349201,44.8085537 27.660238,45 28.0002992,45 C28.3399116,45 28.650799,44.8085537 28.8032506,44.5059642 L30.9878409,40.154546 L37.0727372,40.154546 C38.1357089,40.154546 39,39.293708 39,38.2351663 L39,15.9193796 C39,14.860689 38.1357089,14 37.0727372,14 L18.9278613,14 C17.8648895,14 17,14.860689 17,15.9193796 Z M37.2052907,15.9193796 L37.2052907,38.2351663 C37.2052907,38.3078712 37.1457463,38.3667205 37.0727372,38.3667205 L30.4332404,38.3667205 C30.0930296,38.3667205 29.7821421,38.5581668 29.630289,38.8613522 L28.0002992,42.1070004 L26.3703094,38.8613522 C26.2184563,38.5581668 25.9075689,38.3667205 25.567358,38.3667205 L18.9278613,38.3667205 C18.8548521,38.3667205 18.7953077,38.3078712 18.7953077,38.2351663 L18.7953077,15.9193796 C18.7953077,15.8465258 18.8548521,15.7878255 18.9278613,15.7878255 L37.0727372,15.7878255 C37.1457463,15.7878255 37.2052907,15.8465258 37.2052907,15.9193796 Z" id="Fill-11" fill="url(#linearGradient-3)"></path>
                <path d="M28.5,27 C30.9813266,27 33,24.981293 33,22.500075 C33,20.018707 30.9813266,18 28.5,18 C26.0186734,18 24,20.018707 24,22.500075 C24,24.981293 26.0186734,27 28.5,27 Z M28.5,20 C29.8784969,20 31,21.1211036 31,22.4997918 C31,23.8783412 29.8784969,25 28.5,25 C27.1215031,25 26,23.8783412 26,22.4997918 C26,21.1211036 27.1215031,20 28.5,20 Z" id="Fill-12" fill="url(#linearGradient-3)"></path>
                <path d="M21.8480223,37 L34.1519777,37 C34.6202274,37 35,36.612873 35,36.1355557 C35,32.2011814 31.8597735,29 28,29 C24.1402265,29 21,32.2011814 21,36.1355557 C21,36.612873 21.3797726,37 21.8480223,37 Z M28,30.7288886 C30.6356533,30.7288886 32.8286389,32.6992454 33.2361136,35.2706791 L22.7638864,35.2706791 C23.1707957,32.6992454 25.3637814,30.7288886 28,30.7288886 Z" id="Fill-13" fill="url(#linearGradient-3)"></path>
                <path d="M45.9996094,53 C46.5512851,53 47,52.551266 47,52 C47,51.448734 46.5512851,51 45.9996094,51 C45.4485587,51 45,51.448734 45,52 C45,52.551266 45.4485587,53 45.9996094,53 Z" id="Fill-14" fill="url(#linearGradient-3)"></path>
                <path d="M40.9996094,53 C41.5514413,53 42,52.551266 42,52 C42,51.448734 41.5514413,51 40.9996094,51 C40.4485587,51 40,51.448734 40,52 C40,52.551266 40.4485587,53 40.9996094,53 Z" id="Fill-15" fill="url(#linearGradient-3)"></path>
                <g id="Group-19" transform="translate(0.000000, 47.000000)" fill="url(#linearGradient-3)">
                    <path d="M50.9528936,5.9194 C51.4781915,5.9194 51.9057872,5.48875 51.9057872,4.9597 C51.9057872,4.43065 51.4781915,4 50.9528936,4 C50.4275957,4 50,4.43065 50,4.9597 C50,5.48875 50.4275957,5.9194 50.9528936,5.9194 Z" id="Fill-16"></path>
                    <path d="M55.106383,0 L0.893617021,0 C0.400340426,0 1.0658141e-14,0.448 1.0658141e-14,1 L1.0658141e-14,9 C1.0658141e-14,9.552 0.400340426,10 0.893617021,10 L55.106383,10 C55.5996596,10 56,9.552 56,9 L56,1 C56,0.448 55.5996596,0 55.106383,0 Z M2,8 L35,8 L35,2 L2,2 L2,8 Z M36,8 L54,8 L54,2 L36,2 L36,8 Z" id="Fill-18"></path>
                </g>
            </g>
        </g>
    </g>
</svg>