<?xml version="1.0" encoding="UTF-8"?>
<svg width="109px" height="109px" viewBox="0 0 109 109" version="1.1" xmlns="http://www.w3.org/2000/svg" xmlns:xlink="http://www.w3.org/1999/xlink">
    <!-- Generator: Sketch 53.1 (72631) - https://sketchapp.com -->
    <title>Group 28</title>
    <desc>Created with Sketch.</desc>
    <defs>
        <linearGradient x1="-64.0419408%" y1="0%" x2="53.2137784%" y2="100%" id="linearGradient-1">
            <stop stop-color="#7652FF" offset="0%"></stop>
            <stop stop-color="#4B26D5" offset="100%"></stop>
        </linearGradient>
        <circle id="path-2" cx="28.5" cy="28.5" r="28.5"></circle>
        <filter x="-86.0%" y="-50.9%" width="271.9%" height="271.9%" filterUnits="objectBoundingBox" id="filter-3">
            <feMorphology radius="3" operator="dilate" in="SourceAlpha" result="shadowSpreadOuter1"></feMorphology>
            <feOffset dx="0" dy="20" in="shadowSpreadOuter1" result="shadowOffsetOuter1"></feOffset>
            <feGaussianBlur stdDeviation="12" in="shadowOffsetOuter1" result="shadowBlurOuter1"></feGaussianBlur>
            <feComposite in="shadowBlurOuter1" in2="SourceAlpha" operator="out" result="shadowBlurOuter1"></feComposite>
            <feColorMatrix values="0 0 0 0 0   0 0 0 0 0   0 0 0 0 0  0 0 0 0.0797384511 0" type="matrix" in="shadowBlurOuter1"></feColorMatrix>
        </filter>
        <polygon id="path-4" points="0.00270281181 0 21.3934426 0 21.3934426 21.0884252 0.00270281181 21.0884252"></polygon>
    </defs>
    <g id="Page-1" stroke="none" stroke-width="1" fill="none" fill-rule="evenodd">
        <g id="UI-Strongir-v3" transform="translate(-1511.000000, -334.000000)">
            <g id="Group-28" transform="translate(1537.000000, 340.000000)">
                <g id="Oval">
                    <use fill="black" fill-opacity="1" filter="url(#filter-3)" xlink:href="#path-2"></use>
                    <use stroke="#14171D" stroke-width="6" fill="url(#linearGradient-1)" fill-rule="evenodd" xlink:href="#path-2"></use>
                </g>
                <g id="water-bottle" transform="translate(17.000000, 17.000000)">
                    <g>
                        <g id="Group-4" transform="translate(0.000000, 13.090909)" fill="#FFFFFF">
                            <path d="M8.35939501,2.18624323 C8.74524411,2.57993913 9.37222423,2.57993913 9.75787591,2.18624323 C9.88074479,2.06081144 9.96965527,1.90467676 10.0146699,1.73302266 L10.4578403,0.044026936 L8.80131497,0.497247506 C8.63520835,0.542394886 8.48226389,0.63315993 8.35939501,0.758591713 C7.97374333,1.15255635 7.97374333,1.79234578 8.35939501,2.18624323 Z" id="Fill-1"></path>
                            <path d="M1.07471181,0.0445454545 L0.595111111,0.545387205 C-0.198385417,1.37383838 -0.198385417,2.72184512 0.595111111,3.55043771 L6.35031944,9.56053872 C7.14359028,10.3889899 8.43442708,10.3889899 9.22792361,9.56053872 L9.70752431,9.05950842 L1.07471181,0.0445454545 Z" id="Fill-3"></path>
                        </g>
                        <path d="M10.9102333,5.95827236 C10.3632556,5.42786212 10.3632556,4.56444572 10.9102333,4.03403548 C11.457211,3.50380635 12.3475963,3.50380635 12.894574,4.03403548 L19.8397667,10.7688645 C20.3867444,11.2992748 20.3867444,12.1626912 19.8397667,12.6931014 C19.292789,13.2235116 18.4024037,13.2235116 17.855426,12.6931014 L10.9102333,5.95827236 Z" id="Fill-5" fill="#FFFFFF"></path>
                        <g id="Group-9" transform="translate(2.250000, 0.000000)">
                            <mask id="mask-5" fill="white">
                                <use xlink:href="#path-4"></use>
                            </mask>
                            <g id="Clip-7"></g>
                            <path d="M13.8354646,14.1688456 L14.6045749,13.4107923 L7.79028241,6.69286354 L7.02135536,7.45109753 C6.7056761,7.76231263 6.28728999,7.93379482 5.84352494,7.93379482 C5.03162776,7.93379482 4.26769404,8.24640997 3.69222417,8.81374187 L0.00270281181,12.4510882 L8.76393601,21.0884252 L12.4532741,17.4510788 C13.0289272,16.8835663 13.3460266,16.1306163 13.3460266,15.3302005 C13.3460266,14.8925303 13.5199686,14.4800607 13.8354646,14.1688456 Z M5.35660652,15.8100526 C4.55148928,15.0161853 4.55148928,13.724672 5.35660652,12.9309402 C5.61195352,12.6792042 5.93083951,12.4969733 6.27977709,12.4041643 L8.58550462,11.7955538 C9.0607872,11.6699116 9.55613473,12.1582542 9.42869028,12.6268157 L8.81185365,14.8985369 C8.71720943,15.24394 8.53236459,15.5583165 8.27701759,15.8100526 C7.47190034,16.6037843 6.1618612,16.6037843 5.35660652,15.8100526 Z" id="Fill-6" fill="#FFFFFF" mask="url(#mask-5)"></path>
                            <path d="M21.1916021,4.03780261 L17.297904,0.198986179 C17.028768,-0.0663437804 16.5933863,-0.0663437804 16.3244336,0.198986179 C16.0552977,0.464135488 16.0552977,0.893360327 16.3244336,1.15869029 L16.8111688,1.63854234 L15.243767,3.18359821 C14.190495,2.80572318 13.0498626,2.81895581 12.0167929,3.18219817 L18.1562987,9.23483745 C18.3363334,8.73172669 18.4472861,8.20246681 18.4471029,7.65256765 C18.4474236,7.09246175 18.3488396,6.54468522 18.1679345,6.0590072 L19.7313966,4.51765466 L20.218315,4.99732607 C20.4872677,5.26265602 20.9226495,5.26265602 21.1916021,4.99732607 C21.4607381,4.73217676 21.4607381,4.30295192 21.1916021,4.03780261 Z" id="Fill-8" fill="#FFFFFF" mask="url(#mask-5)"></path>
                        </g>
                    </g>
                </g>
            </g>
        </g>
    </g>
</svg>