<?xml version="1.0" encoding="UTF-8"?>
<svg width="48px" height="57px" viewBox="0 0 48 57" version="1.1" xmlns="http://www.w3.org/2000/svg" xmlns:xlink="http://www.w3.org/1999/xlink">
    <!-- Generator: Sketch 52.6 (67491) - http://www.bohemiancoding.com/sketch -->
    <title>award</title>
    <desc>Created with Sketch.</desc>
    <defs>
        <polygon id="path-1" points="2.56335592e-05 0 47.8764468 0 47.8764468 57 2.56335592e-05 57"></polygon>
        <linearGradient x1="-64.0419408%" y1="0%" x2="53.2137784%" y2="100%" id="linearGradient-3">
            <stop stop-color="#7652FF" offset="0%"></stop>
            <stop stop-color="#4B26D5" offset="100%"></stop>
        </linearGradient>
    </defs>
    <g id="Page-1" stroke="none" stroke-width="1" fill="none" fill-rule="evenodd">
        <g id="iPhone-8" transform="translate(-164.000000, -1892.000000)">
            <g id="award" transform="translate(164.000000, 1892.000000)">
                <g id="Group-3">
                    <mask id="mask-2" fill="white">
                        <use xlink:href="#path-1"></use>
                    </mask>
                    <g id="Clip-2"></g>
                    <path d="M44.6054649,30.4655172 C45.1769766,33.0885 45.715574,35.5660345 44.6722909,37.3448276 C43.5751481,39.2061724 41.0886234,39.9845172 38.4524883,40.8090517 C36.8799584,41.2392543 35.3580468,41.8322263 33.9123117,42.5780172 C32.5833974,43.4170474 31.3502338,44.3946466 30.2338909,45.4938621 C28.180239,47.3689655 26.2422857,49.137931 23.9382857,49.137931 C21.6342857,49.137931 19.6963325,47.3689655 17.6436779,45.4938621 C16.526961,44.3945237 15.2932987,43.4170474 13.9642597,42.5780172 C12.518026,41.8321034 10.9958649,41.2391315 9.42308571,40.8090517 C6.78695065,39.9845172 4.29643636,39.2061724 3.20328312,37.3448276 C2.16,35.5670172 2.6985974,33.0894828 3.27010909,30.4655172 C3.68141299,28.8563728 3.92265974,27.2097608 3.99023377,25.5517241 C3.92315844,23.8936875 3.68216104,22.2470754 3.27110649,20.637931 C2.69959481,18.0149483 2.1609974,15.5374138 3.20428052,13.7586207 C4.30142338,11.8972759 6.78794805,11.118931 9.42408312,10.2943966 C10.9964883,9.86419397 12.5184,9.27122198 13.9642597,8.52543103 C15.2930494,7.68640086 16.526213,6.70880172 17.6426805,5.60958621 C19.6963325,3.73448276 21.6342857,1.96551724 23.9382857,1.96551724 C26.2422857,1.96551724 28.180239,3.73448276 30.2328935,5.60958621 C31.3494857,6.70880172 32.5831481,7.68640086 33.9123117,8.52543103 C35.3584208,9.27134483 36.8805818,9.86431681 38.4534857,10.2943966 C41.0896208,11.118931 43.5801351,11.8972759 44.6732883,13.7586207 C45.7165714,15.536431 45.177974,18.0139655 44.6064623,20.637931 C44.1950338,22.2470754 43.953787,23.8936875 43.8863377,25.5517241 C43.9532883,27.2097608 44.1942857,28.8563728 44.6054649,30.4655172 Z M44.6134442,48.8509655 L39.0279896,48.1630345 C38.5402597,48.1032091 38.0810805,48.4022134 37.9458078,48.8676724 L36.4856104,53.8856379 L31.2452571,47.2471034 L31.5883636,46.9345862 C32.5972364,45.9368405 33.710587,45.0470754 34.9097143,44.2801552 C36.2312727,43.6073341 37.6205299,43.0724677 39.0549195,42.6841552 L39.6064831,42.5102069 L44.6134442,48.8509655 Z M11.390961,53.8856379 L9.93575065,48.8676724 C9.80035325,48.4022134 9.34117403,48.1032091 8.85356883,48.1630345 L3.26811429,48.8509655 L8.27407792,42.5102069 L8.82564156,42.6841552 C10.2586597,43.0727134 11.6465455,43.6075797 12.9668571,44.2801552 C14.1661091,45.0467069 15.2798338,45.9361034 16.2892052,46.9336034 L16.6323117,47.2461207 L11.390961,53.8856379 Z M46.3987948,12.7758621 C44.9186494,10.256069 41.9384104,9.32343103 39.0559169,8.42322414 C37.6210286,8.03368319 36.2313974,7.49746552 34.9097143,6.8232931 C33.7103377,6.05674138 32.596613,5.16734483 31.5873662,4.16984483 C29.4489351,2.21415517 27.0242494,0 23.9382857,0 C20.8523221,0 18.4276364,2.21415517 16.2882078,4.16886207 C15.2792104,5.16660776 14.1658597,6.05637284 12.9668571,6.8232931 C11.6452987,7.49611422 10.2559169,8.0309806 8.82165195,8.4192931 C5.93915844,9.3195 2.95891948,10.2521379 1.47877403,12.771931 C0.0494961039,15.2062241 0.695812987,18.1771034 1.32118442,21.0467586 C1.6992,22.5222478 1.92511169,24.0315194 1.99542857,25.5517241 C1.92486234,27.0719289 1.69857662,28.5813233 1.32018701,30.0566897 C0.698805195,32.9283103 0.0484987013,35.8972241 1.47777662,38.3275862 C2.61518961,40.0125259 4.31588571,41.2514159 6.28425974,41.8291552 L0.210077922,49.5172759 C-0.128041558,49.9457586 -0.0496207792,50.5631767 0.385246753,50.8963319 C0.594202597,51.0563987 0.859137662,51.1280172 1.1217039,51.0955862 L8.25313247,50.2179828 L10.0135481,56.2875 C10.1166545,56.6432586 10.4138805,56.9117974 10.7825455,56.9823103 C10.8450078,56.9939806 10.9083429,57 10.9720519,57 C11.28,57.0002457 11.5708675,56.8602026 11.76,56.6206552 L18.129413,48.5482759 C19.6968312,50.0517737 21.7557195,50.9575086 23.9382857,51.1034483 C26.1208519,50.9575086 28.1796156,50.0517737 29.7471584,48.5482759 L36.1165714,56.6177069 C36.3050805,56.8583599 36.5959481,56.9995086 36.9045195,57 C36.9681039,57 37.0315636,56.9939806 37.094026,56.9823103 C37.4625662,56.9117974 37.7597922,56.6432586 37.8630234,56.2875 L39.623439,50.2189655 L46.7548675,51.096569 C47.3013195,51.1641336 47.8000208,50.7823319 47.8687169,50.2437802 C47.9016312,49.985069 47.8288208,49.7241466 47.6664935,49.5182586 L41.5972987,41.8301379 C43.5639273,41.2511703 45.2626286,40.0119116 46.3987948,38.3275862 C47.8280727,35.8932931 47.1817558,32.9224138 46.5563844,30.0527586 C46.1781195,28.5786207 45.9519584,27.0705776 45.8811429,25.5517241 C45.9515844,24.0315194 46.1778701,22.522125 46.5563844,21.0467586 C47.1777662,18.1751379 47.8280727,15.2062241 46.3987948,12.7758621 Z" id="Fill-1" fill="url(#linearGradient-3)" mask="url(#mask-2)"></path>
                </g>
                <path d="M24,42 C15.163375,42 8,34.8365 8,26 C8,17.1635 15.163375,10 24,10 C32.8365,10 40,17.1635 40,26 C39.9895,34.83225 32.832125,41.9895 24,42 Z M24,8 C14.058875,8 6,16.058875 6,26 C6,35.941125 14.058875,44 24,44 C33.941125,44 42,35.941125 42,26 C41.988375,16.063625 33.93625,8.011625 24,8 Z" id="Fill-4" fill="url(#linearGradient-3)"></path>
                <path d="M34.0716663,21.8517421 L28.7239598,25.7250261 C28.3855081,25.9701722 28.2440745,26.4047985 28.3738124,26.8013124 L30.4168215,33.0705116 L25.0681503,29.1962658 C24.7301809,28.9516006 24.2727224,28.9516006 23.934753,29.1962658 L18.5860818,33.0705116 L20.6281263,26.8013124 C20.7572613,26.405039 20.6159483,25.9710138 20.2779789,25.725988 L14.9302724,21.8517421 L21.5406318,21.8517421 C21.9584214,21.8517421 22.3288253,21.5833919 22.4579603,21.1871185 L24.5009694,14.9179193 L26.5439784,21.1861567 C26.6729928,21.5824301 27.0433967,21.8507803 27.4613069,21.8507803 L34.0716663,21.8517421 Z M34.0716663,19.9280848 L28.1664248,19.9280848 L26.3336971,14.3235092 C26.0009123,13.3141903 24.9106805,12.7649861 23.8985807,13.0966968 C23.3162074,13.2874995 22.8595929,13.7429254 22.6682417,14.3235092 L20.8403369,19.9280848 L14.9302724,19.9280848 C13.8647582,19.9276039 13.000603,20.7883203 13.0000001,21.8507803 C12.999759,22.4662304 13.294804,23.0447704 13.7939812,23.4070191 L18.5745067,26.8696022 L16.7485312,32.4741778 C16.4191225,33.4845788 16.9735226,34.5698822 17.9868281,34.8982265 C18.5743861,35.0886686 19.21777,34.9870754 19.71755,34.6248267 L24.5009694,31.1632054 L29.2824595,34.6257885 C29.9558663,35.1247372 30.877656,35.1247372 31.5511834,34.6257885 C32.2347185,34.1413876 32.5192736,33.2675662 32.2514784,32.4751397 L30.4255028,26.8696022 L35.2060283,23.4070191 C36.0674103,22.7818304 36.2574353,21.5785828 35.6304495,20.7196698 C35.2675212,20.2225246 34.6882828,19.9284455 34.0716663,19.9280848 Z" id="Fill-5" fill="url(#linearGradient-3)"></path>
            </g>
        </g>
    </g>
</svg>