<?xml version="1.0" encoding="UTF-8"?>
<svg width="56px" height="56px" viewBox="0 0 56 56" version="1.1" xmlns="http://www.w3.org/2000/svg" xmlns:xlink="http://www.w3.org/1999/xlink">
    <!-- Generator: Sketch 52.6 (67491) - http://www.bohemiancoding.com/sketch -->
    <title>solution</title>
    <desc>Created with Sketch.</desc>
    <defs>
        <polygon id="path-1" points="0 0.0794099861 56 0.0794099861 56 55.9930146 0 55.9930146"></polygon>
        <linearGradient x1="-64.0419408%" y1="0%" x2="53.2137784%" y2="100%" id="linearGradient-3">
            <stop stop-color="#7652FF" offset="0%"></stop>
            <stop stop-color="#4B26D5" offset="100%"></stop>
        </linearGradient>
    </defs>
    <g id="Page-1" stroke="none" stroke-width="1" fill="none" fill-rule="evenodd">
        <g id="iPhone-8" transform="translate(-160.000000, -1326.000000)">
            <g id="Group-12" transform="translate(20.000000, 1289.000000)">
                <g id="solution" transform="translate(140.000000, 37.000000)">
                    <g id="Group-4">
                        <mask id="mask-2" fill="white">
                            <use xlink:href="#path-1"></use>
                        </mask>
                        <g id="Clip-2"></g>
                        <path d="M4.57333333,33.6465696 L9.14666667,34.391684 L7.37333333,45.5683992 C7.37333333,45.8477006 7.46666667,46.1272349 7.65333333,46.4065364 L10.4533333,49.2007152 C10.8266667,49.5732723 11.3866667,49.5732723 11.76,49.2007152 L14.56,46.4065364 C14.7466667,46.2203742 14.84,45.9408399 14.84,45.5683992 L13.0666667,34.391684 L17.64,33.6465696 C19.1333333,33.6465696 20.3466667,34.9505198 20.3466667,36.4407484 L20.3466667,50.4116424 L1.86666667,50.4116424 L1.86666667,36.4407484 C1.86666667,34.9505198 3.08,33.6465696 4.57333333,33.6465696 Z M11.1066667,34.5779626 L11.3866667,34.5779626 L13.0666667,45.4751435 L11.2,47.24479 L9.42666667,45.4751435 L11.1066667,34.5779626 Z M3.73333333,20.6070686 C3.73333333,20.1413721 3.73333333,19.6756757 3.82666667,19.3030021 C5.22666667,20.1413721 6.81333333,20.6070686 8.4,20.6070686 L18.6666667,20.6070686 C18.6666667,23.7738046 16.7066667,26.5679834 13.72,27.5925156 C13.3466667,27.6855385 13.0666667,28.0582121 13.0666667,28.4307692 L13.0666667,28.989605 C13.0666667,30.2004158 13.5333333,31.4111102 14.4666667,32.3425031 L12.04,32.7151767 L10.36,32.7151767 L7.93333333,32.3425031 C8.86666667,31.5042495 9.33333333,30.2935551 9.33333333,28.989605 L9.33333333,28.5239085 C9.33333333,28.1512349 9.05333333,27.7787942 8.68,27.6855385 C5.69333333,26.5679834 3.73333333,23.7738046 3.73333333,20.6070686 Z M12.1333333,13.1559252 C15.4,13.1559252 18.1066667,15.5774304 18.5733333,18.7442827 L8.4,18.7442827 C5.13333333,18.7442827 2.42666667,16.3226611 1.96,13.1559252 L12.1333333,13.1559252 Z M1.86666667,54.1372141 L20.5333333,54.1372141 L20.5333333,52.2744283 L1.86666667,52.2744283 L1.86666667,54.1372141 Z M0.933333333,56 L21.4666667,56 C22.0266667,56 22.4,55.6273264 22.4,55.0686071 L22.4,36.4407484 C22.4,33.8327318 20.3466667,31.7837838 17.7333333,31.7837838 C16.24,31.7837838 15.0266667,30.6661123 14.9333333,29.1757672 C18.48,27.6855385 20.6266667,24.1462453 20.5333333,20.3276507 C20.5333333,20.1413721 20.5333333,19.7686985 20.5333333,19.6756757 C20.5333333,15.018711 16.8,11.2931393 12.1333333,11.2931393 L0.933333333,11.2931393 C0.373333333,11.2931393 0,11.6656965 0,12.2245322 C0,14.3666195 0.84,16.4158004 2.24,17.9059127 C2.05333333,18.8373056 1.86666667,19.6756757 1.86666667,20.6070686 C1.86666667,24.3326403 4.10666667,27.6855385 7.46666667,29.1757672 C7.37333333,30.6661123 6.16,31.7837838 4.66666667,31.7837838 C2.05333333,31.7837838 0,33.8327318 0,36.4407484 L0,55.0686071 C0,55.6273264 0.373333333,56 0.933333333,56 Z" id="Fill-1" fill="url(#linearGradient-3)" mask="url(#mask-2)"></path>
                        <path d="M27.2533333,7.00873181 C27.44,6.82245322 27.72,6.63617464 28.0933333,6.63617464 L30.1466667,6.63617464 C31.36,6.63617464 32.48,5.79780457 32.8533333,4.58699376 C33.5066667,2.63118503 35.56,1.51351351 37.52,2.16548857 C38.7333333,2.53792931 39.5733333,3.46932225 39.9466667,4.58699376 C40.32,5.79780457 41.44,6.63617464 42.6533333,6.63617464 L44.7066667,6.63617464 C44.9866667,6.63617464 45.2666667,6.82245322 45.4533333,7.00873181 L47.6933333,10.3617464 L25.1066667,10.3617464 L27.2533333,7.00873181 Z M20.5333333,9.43035343 L23.52,9.43035343 C22.96,10.2686071 23.3333333,11.4794179 24.1733333,11.9451143 C24.4533333,12.1313929 24.8266667,12.2245322 25.1066667,12.2245322 L47.7866667,12.2245322 C48.8133333,12.2245322 49.6533333,11.3861622 49.6533333,10.3617464 C49.6533333,9.98907277 49.56,9.70965489 49.3733333,9.43035343 L52.2666667,9.43035343 C53.2933333,9.43035343 54.1333333,10.2686071 54.1333333,11.2931393 L54.1333333,52.2744283 C54.1333333,53.2988441 53.2933333,54.1372141 52.2666667,54.1372141 L24.2666667,54.1372141 L24.2666667,56 L52.2666667,56 C54.32,56 56,54.3233763 56,52.2744283 L56,11.2931393 C56,9.24395842 54.32,7.56756757 52.2666667,7.56756757 L48.0666667,7.56756757 L47.04,5.98408316 C46.5733333,5.23908524 45.64,4.77338877 44.7066667,4.77338877 L42.6533333,4.77338877 C42.1866667,4.77338877 41.8133333,4.49397089 41.72,4.02827443 C40.7866667,1.04781705 37.7066667,-0.53566736 34.72,0.302702703 C32.9466667,0.861422037 31.5466667,2.25851143 30.9866667,4.02827443 C30.8933333,4.40071518 30.52,4.77338877 30.0533333,4.77338877 L28,4.77338877 C27.0666667,4.77338877 26.2266667,5.23908524 25.6666667,5.98408316 L24.7333333,7.56756757 L20.5333333,7.56756757 C18.48,7.56756757 16.8,9.24395842 16.8,11.2931393 L18.6666667,11.2931393 C18.6666667,10.2686071 19.5066667,9.43035343 20.5333333,9.43035343 Z" id="Fill-3" fill="url(#linearGradient-3)" mask="url(#mask-2)"></path>
                    </g>
                    <polygon id="Fill-5" fill="url(#linearGradient-3)" points="36 6 38 6 38 4 36 4"></polygon>
                    <polyline id="Fill-6" fill="url(#linearGradient-3)" points="27.3243243 29 29.5 26.8244426 31.6756757 29 33 27.6756757 30.8243243 25.5001182 33 23.3244426 31.6756757 22 29.5 24.1756757 27.3243243 22 26 23.3244426 28.1756757 25.5001182 26 27.6756757 27.3243243 29"></polyline>
                    <polyline id="Fill-7" fill="url(#linearGradient-3)" points="41.6756757 41 39.5 43.1755942 37.3243243 41 36 42.3242284 38.1756757 44.5000591 36 46.6757716 37.3243243 48 39.5 45.8244058 41.6756757 48 43 46.6757716 40.8243243 44.5000591 43 42.3242284 41.6756757 41"></polyline>
                    <path d="M25,49 L27.3206751,49 C30.6624473,49 33.3544304,46.2207172 33.3544304,42.7708414 L33.3544304,41.8125094 C33.3544304,39.4166791 35.2109705,37.500015 37.5316456,37.500015 C40.8734177,37.500015 43.5654008,34.7207321 43.5654008,31.2708564 L43.5654008,29.258359 L45.7004219,31.462403 L47,30.1208579 L43.2869198,26.2874098 C42.9156118,25.9041967 42.3586498,25.9041967 41.9873418,26.2874098 L38.2742616,30.1208579 L39.5738397,31.462403 L41.7088608,29.258359 L41.7088608,31.2708564 C41.7088608,33.6666866 39.8523207,35.5833508 37.5316456,35.5833508 C34.1898734,35.5833508 31.4978903,38.3625139 31.4978903,41.8125094 L31.4978903,42.7708414 C31.4978903,45.1666717 29.6413502,47.0833358 27.3206751,47.0833358 L25,47.0833358 L25,49" id="Fill-8" fill="url(#linearGradient-3)"></path>
                    <path d="M46.4331081,19.4539886 C46.4331081,21.4800066 44.7218468,23.1376577 42.6303052,23.1376577 C40.5387636,23.1376577 38.8275023,21.4800066 38.8275023,19.4539886 C38.8275023,17.4278555 40.5387636,15.7703195 42.6303052,15.7703195 C43.5810059,15.7703195 44.4366366,16.1386864 45.1021271,16.6912368 L42.6303052,19.0855066 L41.3943943,17.8883141 L40.0634132,19.1777134 L41.9648147,21.019548 C42.345095,21.3877998 42.9155154,21.3877998 43.2957957,21.019548 L46.1478978,18.2567962 C46.338038,18.625048 46.4331081,18.99353 46.4331081,19.4539886 Z M47.669019,14.204645 L46.4331081,15.4018375 C44.1514263,13.3759346 40.5387636,13.5600029 38.447222,15.8622961 C36.3556804,18.1645893 36.5458206,21.5719833 38.9225724,23.5981164 C41.2993242,25.6241344 44.8169168,25.4399509 46.9084584,23.1376577 C48.5246496,21.3877998 48.8098599,18.9014383 47.669019,16.8754203 L49,15.586021 L47.669019,14.204645 Z" id="Fill-9" fill="url(#linearGradient-3)"></path>
                    <polygon id="Fill-10" fill="url(#linearGradient-3)" points="15 40 18 40 18 38 15 38"></polygon>
                    <path d="M24,53 L51.0666667,53 C51.6266667,53 52,52.6277907 52,52.0697674 L52,13 L50.1333333,13 L50.1333333,51.1395349 L24,51.1395349 L24,53" id="Fill-11" fill="url(#linearGradient-3)"></path>
                </g>
            </g>
        </g>
    </g>
</svg>